<?xml version="1.0" encoding="UTF-8" standalone="no"?>
<!-- Created with Inkscape (http://www.inkscape.org/) -->

<svg
   xmlns:dc="http://purl.org/dc/elements/1.1/"
   xmlns:cc="http://creativecommons.org/ns#"
   xmlns:rdf="http://www.w3.org/1999/02/22-rdf-syntax-ns#"
   xmlns:svg="http://www.w3.org/2000/svg"
   xmlns="http://www.w3.org/2000/svg"
   xmlns:xlink="http://www.w3.org/1999/xlink"
   xmlns:sodipodi="http://sodipodi.sourceforge.net/DTD/sodipodi-0.dtd"
   xmlns:inkscape="http://www.inkscape.org/namespaces/inkscape"
   width="650"
   height="425"
   id="svg2"
   version="1.1"
   inkscape:version="0.48.5 r10040"
   sodipodi:docname="background_base.svg"
   inkscape:export-filename="/Users/Thoughtworker/Documents/ObjectiveC/network-monitor/Background.png"
   inkscape:export-xdpi="72"
   inkscape:export-ydpi="72">
  <defs
     id="defs4">
    <linearGradient
       id="linearGradient4993">
      <stop
         style="stop-color:#ace0ff;stop-opacity:1;"
         offset="0"
         id="stop4995" />
      <stop
         style="stop-color:#ace0ff;stop-opacity:0;"
         offset="1"
         id="stop4997" />
    </linearGradient>
    <linearGradient
       id="linearGradient4926">
      <stop
         id="stop4928"
         offset="0"
         style="stop-color:#ffffff;stop-opacity:0.53846157;" />
      <stop
         id="stop4930"
         offset="1"
         style="stop-color:#ffffff;stop-opacity:1;" />
    </linearGradient>
    <linearGradient
       id="linearGradient4847">
      <stop
         style="stop-color:#ffffff;stop-opacity:0;"
         offset="0"
         id="stop4849" />
      <stop
         style="stop-color:#ffffff;stop-opacity:1;"
         offset="1"
         id="stop4851" />
    </linearGradient>
    <marker
       inkscape:stockid="Arrow1Lend"
       orient="auto"
       refY="0"
       refX="0"
       id="Arrow1Lend"
       style="overflow:visible">
      <path
         id="path4042"
         d="M 0,0 5,-5 -12.5,0 5,5 0,0 z"
         style="fill-rule:evenodd;stroke:#000000;stroke-width:1pt"
         transform="matrix(-0.8,0,0,-0.8,-10,0)"
         inkscape:connector-curvature="0" />
    </marker>
    <marker
       inkscape:stockid="DiamondLstart"
       orient="auto"
       refY="0"
       refX="0"
       id="DiamondLstart"
       style="overflow:visible">
      <path
         id="path4127"
         d="M 0,-7.0710768 -7.0710894,0 0,7.0710589 7.0710462,0 0,-7.0710768 z"
         style="fill-rule:evenodd;stroke:#000000;stroke-width:1pt"
         transform="matrix(0.8,0,0,0.8,5.6,0)"
         inkscape:connector-curvature="0" />
    </marker>
    <linearGradient
       id="linearGradient3823">
      <stop
         style="stop-color:#27c4a6;stop-opacity:0.4957265;"
         offset="0"
         id="stop3825" />
      <stop
         style="stop-color:#00a6a3;stop-opacity:0;"
         offset="1"
         id="stop3827" />
    </linearGradient>
    <inkscape:path-effect
       effect="spiro"
       id="path-effect3041"
       is_visible="true" />
    <linearGradient
       inkscape:collect="always"
       xlink:href="#linearGradient4847"
       id="linearGradient4853"
       x1="207.25441"
       y1="250"
       x2="287.75818"
       y2="250"
       gradientUnits="userSpaceOnUse"
       gradientTransform="matrix(2.914894,0,0,1,-461.95835,0)" />
    <linearGradient
       inkscape:collect="always"
       xlink:href="#linearGradient4926"
       id="linearGradient4924"
       x1="287.29941"
       y1="210.6801"
       x2="368.32312"
       y2="210.6801"
       gradientUnits="userSpaceOnUse" />
    <linearGradient
       inkscape:collect="always"
       xlink:href="#linearGradient4847"
       id="linearGradient4934"
       gradientUnits="userSpaceOnUse"
       gradientTransform="matrix(0.91489367,0,0,1,113.55807,0)"
       x1="207.25441"
       y1="250"
       x2="287.75818"
       y2="250" />
    <linearGradient
       inkscape:collect="always"
       xlink:href="#linearGradient4847"
       id="linearGradient4937"
       gradientUnits="userSpaceOnUse"
       gradientTransform="matrix(1.0000001,0,0,2.5172415,89.068013,-380.16678)"
       x1="207.25441"
       y1="250"
       x2="287.75818"
       y2="250" />
    <linearGradient
       inkscape:collect="always"
       xlink:href="#linearGradient4847"
       id="linearGradient4948"
       gradientUnits="userSpaceOnUse"
       gradientTransform="matrix(2.3936173,0,0,1,-353.92146,0)"
       x1="207.25441"
       y1="250"
       x2="287.75818"
       y2="250" />
    <linearGradient
       inkscape:collect="always"
       xlink:href="#linearGradient4847"
       id="linearGradient4964"
       gradientUnits="userSpaceOnUse"
       gradientTransform="matrix(0.58330762,0,0,2.5172415,208.96897,-380.16678)"
       x1="207.25441"
       y1="250"
       x2="287.75818"
       y2="250" />
    <linearGradient
       inkscape:collect="always"
       xlink:href="#linearGradient4847"
       id="linearGradient4971"
       gradientUnits="userSpaceOnUse"
       gradientTransform="matrix(2.3936173,0,0,1.3448276,-353.92146,-86.206899)"
       x1="207.25441"
       y1="250"
       x2="287.75818"
       y2="250" />
    <linearGradient
       inkscape:collect="always"
       xlink:href="#linearGradient4847"
       id="linearGradient4979"
       gradientUnits="userSpaceOnUse"
       gradientTransform="matrix(3.610433,0,0,1.6706332,-656.08185,-175.76475)"
       x1="207.25441"
       y1="250"
       x2="287.75818"
       y2="250" />
    <radialGradient
       inkscape:collect="always"
       xlink:href="#linearGradient4993"
       id="radialGradient5003"
       cx="262.06549"
       cy="178.13602"
       fx="262.06549"
       fy="178.13602"
       r="286.90176"
       gradientTransform="matrix(1.2671642,0,0,0.84029852,-9.5461157,721.60169)"
       gradientUnits="userSpaceOnUse" />
    <radialGradient
       inkscape:collect="always"
       xlink:href="#linearGradient4993"
       id="radialGradient5005"
       gradientUnits="userSpaceOnUse"
       gradientTransform="matrix(1.4119668,0,0,0.84029852,30.962,681.60169)"
       cx="262.06549"
       cy="178.13602"
       fx="262.06549"
       fy="178.13602"
       r="286.90176" />
    <linearGradient
       inkscape:collect="always"
       xlink:href="#linearGradient4847"
       id="linearGradient5011"
       gradientUnits="userSpaceOnUse"
       gradientTransform="matrix(3.610433,0,0,1.6706332,-656.08185,-175.76475)"
       x1="207.25441"
       y1="250"
       x2="287.75818"
       y2="250" />
    <linearGradient
       inkscape:collect="always"
       xlink:href="#linearGradient4847"
       id="linearGradient5014"
       gradientUnits="userSpaceOnUse"
       gradientTransform="matrix(3.610433,0,0,1.9891968,-601.01369,-254.48959)"
       x1="207.25441"
       y1="250"
       x2="287.75818"
       y2="250" />
    <linearGradient
       inkscape:collect="always"
       xlink:href="#linearGradient4847"
       id="linearGradient5021"
       gradientUnits="userSpaceOnUse"
       gradientTransform="matrix(3.610433,0,0,1.9891968,-601.01369,-254.48959)"
       x1="207.25441"
       y1="250"
       x2="287.75818"
       y2="250" />
  </defs>
  <sodipodi:namedview
     id="base"
     pagecolor="#ffffff"
     bordercolor="#666666"
     borderopacity="1.0"
     inkscape:pageopacity="0.0"
     inkscape:pageshadow="2"
     inkscape:zoom="1.0916296"
     inkscape:cx="311.72544"
     inkscape:cy="206.50504"
     inkscape:document-units="px"
     inkscape:current-layer="layer2"
     showgrid="false"
     showguides="true"
     inkscape:guide-bbox="true"
     inkscape:window-width="1442"
     inkscape:window-height="784"
     inkscape:window-x="0"
     inkscape:window-y="0"
     inkscape:window-maximized="0" />
  <metadata
     id="metadata7">
    <rdf:RDF>
      <cc:Work
         rdf:about="">
        <dc:format>image/svg+xml</dc:format>
        <dc:type
           rdf:resource="http://purl.org/dc/dcmitype/StillImage" />
        <dc:title></dc:title>
      </cc:Work>
    </rdf:RDF>
  </metadata>
  <g
     inkscape:label="Layer 1"
     inkscape:groupmode="layer"
     id="layer1"
     transform="translate(0,-627.36217)">
    <rect
       style="fill:url(#radialGradient5005);fill-opacity:1;stroke:none"
       id="rect4987"
       width="810.19153"
       height="482.16626"
       x="-4.1059813"
       y="590.20599" />
    <path
       d="m 306.19073,584.13576 c 5.54724,-9.85045 17.50063,-21.59137 42.94707,-21.59137 32.35408,0 73.85326,19.08662 102.61481,34.8746 -0.0715,0.031 -0.14404,0.0599 -0.21553,0.0909 -11.91071,5.23568 -23.11829,11.7764 -33.53096,19.54122 -29.63754,-14.39091 -53.38855,-21.2432 -68.86832,-21.2432 -4.6435,0 -12.80698,0.66638 -15.31972,5.12813 -3.92969,6.97758 -1.91843,31.36751 30.53808,78.52412 0.22727,0.32931 0.46093,0.66083 0.68927,0.99125 -5.67848,11.32845 -10.26543,23.28337 -13.6659,36.38588 -26.05249,-34.30469 -66.25315,-95.2956 -45.1888,-132.70155 z m 280.63747,13.37415 c 11.91178,5.23568 23.11829,11.7764 33.52989,19.54122 29.63755,-14.39091 53.38962,-21.2432 68.86939,-21.2432 4.6435,0 12.80698,0.66638 15.31972,5.12813 9.19631,16.33018 -19.60472,62.79712 -31.22842,79.51537 5.79051,11.55021 10.32518,23.51067 13.66697,36.38477 26.03755,-34.28362 66.24888,-95.30114 45.1888,-132.70155 -5.54724,-9.85045 -17.50063,-21.59136 -42.94707,-21.59136 -32.34234,0 -73.82658,19.0722 -102.61481,34.8746 0.0725,0.0333 0.14404,0.061 0.21553,0.092 z m -177.14774,306.5978 c -25.7676,11.71763 -46.53533,17.32365 -60.53519,17.32365 -0.002,0 -0.004,0 -0.006,0 -4.6435,0 -12.80911,-0.66749 -15.31972,-5.12813 -3.83473,-6.81015 -1.99739,-30.2166 28.26434,-75.17447 -5.44588,-11.96157 -9.69993,-24.5618 -12.59679,-38.21426 -25.27572,33.69929 -64.04769,93.3408 -43.2949,130.18792 5.5451,9.84934 17.49636,21.58915 42.9428,21.59247 0.004,0 0.007,0 0.0107,0 29.05391,0 65.40917,-15.44536 92.21067,-29.3218 -11.29293,-5.87656 -21.88165,-12.98609 -31.67548,-21.26538 z M 688.87964,802.9145 c -2.92246,13.76778 -7.19786,26.35692 -12.59678,38.21537 30.26066,44.95787 32.098,68.36321 28.26327,75.17447 -2.51167,4.46064 -10.67622,5.12702 -15.31759,5.12702 -14.00093,0 -34.77185,-5.60712 -60.54159,-17.32587 -9.79382,8.2804 -20.38255,15.38993 -31.67548,21.26649 26.80364,13.87866 63.15997,29.32291 92.21707,29.32291 25.44645,0 37.39877,-11.74202 42.94494,-21.59136 20.76026,-36.86154 -18.01598,-96.472 -43.29384,-130.18903 z M 533.14943,716.5457 c 0.004,10e-4 0.0128,10e-4 0.0171,10e-4 0.13551,0.0122 0.24754,-0.0953 0.38305,-0.10311 0.38304,-0.0255 1.61327,0.85709 2.03793,1.04558 0.13764,0.0621 0.28915,0.0832 0.41932,0.16521 0.24434,0.15301 0.42253,0.39805 0.67967,0.52667 0.0875,0.0432 0.23154,0.11421 0.43746,0.0754 0.14405,-0.0255 0.36064,-0.0676 0.59004,-0.84822 0.0939,-0.31046 -0.26674,-0.47456 -0.23153,-0.76395 0.0544,-0.44352 0.39158,-0.76839 0.47054,-1.20525 0.0352,-0.19847 -0.0267,-0.30048 -0.18992,-0.31711 -0.0245,-0.004 -0.0502,-0.003 -0.0726,0.002 -0.10883,0.0211 -0.20593,0.0865 -0.31903,0.10201 -0.36277,0.0388 -0.32116,-0.12973 -0.63378,0.0621 -0.16219,0.0987 -0.30623,0.2262 -0.49402,0.27166 -0.17925,0.0421 -0.3393,-0.0776 -0.51855,-0.0599 -0.24434,0.0211 -0.39585,0.28496 -0.65193,0.2772 -0.34143,-0.01 -0.56229,-0.31933 -0.88132,-0.3781 -0.20593,-0.0377 -0.3233,0.20402 -0.51855,0.18628 -0.2006,-0.0177 -0.14191,-0.1009 -0.30409,-0.15634 -0.25181,-0.0876 -0.54203,0.85487 -0.48762,0.9469 0.0779,0.14303 0.19633,0.16299 0.26782,0.16965 z m -26.02902,-39.50711 c -0.0245,-0.0277 -0.0416,-0.0676 -0.0437,-0.12196 -0.0107,-0.16189 0.15258,-0.72404 0.38304,-0.77283 0.004,-0.001 0.0128,-0.003 0.0171,-0.004 0.0587,-0.0133 0.096,-0.0111 0.17925,0.12086 0.0171,0.0255 0.0459,0.0399 0.0747,0.0333 0.0213,-0.002 0.0352,-0.0166 0.0416,-0.0333 0.0661,-0.16743 0.0875,-0.35038 0.16005,-0.5167 0.0192,-0.041 0.0192,-0.0887 0.002,-0.12862 -0.002,-0.002 -0.002,-0.004 -0.004,-0.008 -0.12483,0.0699 -0.28168,0.0421 -0.37771,-0.0665 -0.096,-0.10867 -0.11203,-0.27166 -0.0373,-0.39584 0.0608,-0.10201 0.14404,-0.19182 0.25394,-0.25391 0.0128,-0.006 0.0224,-0.0122 0.0352,-0.0177 0.0608,-0.0244 0.12697,-0.0244 0.18779,0.002 0.10243,0.0432 0.22086,0.0299 0.31262,-0.0421 0.0171,-0.0133 0.0352,-0.0277 0.0523,-0.041 0.32756,-0.27055 0.61244,-0.58322 0.85678,-0.93693 0.11844,-0.17186 0.23794,-0.30269 0.33717,-0.34261 0.15578,-0.0621 0.31049,-0.0832 0.46307,-0.0832 0.40012,0.001 0.8109,0.0554 1.20035,0.15966 0.16218,0.0455 0.53776,0.22398 0.0896,0.51337 -0.20166,0.12973 -0.44173,0.18517 -0.62098,0.36147 -0.13124,0.1264 -0.14405,0.32043 -0.23794,0.46679 -0.0171,0.0255 -0.0171,0.0599 -0.002,0.0832 0.0128,0.0255 0.0416,0.041 0.0704,0.0388 0.36704,-0.0233 2.30468,-0.10423 1.87361,0.52002 -0.18565,0.26833 -0.34143,0.56881 -0.45453,0.87927 -0.26674,0.74843 -0.30196,1.57447 -0.0832,2.35949 0.0608,0.21178 0.0832,0.43575 0.0651,0.62979 -0.0213,0.21732 -0.0811,0.43353 -0.0587,0.65418 0.0213,0.21732 0.24434,0.37145 0.18565,0.60873 -0.004,0.0199 -0.002,0.041 0.006,0.0599 0.002,0.006 0.009,0.008 0.0128,0.007 0.0437,-0.007 0.0726,-0.0111 0.096,-0.0111 0.18138,10e-4 0.37344,-0.004 0.55589,-0.0177 0.0587,-0.004 0.0747,0.0133 0.10457,0.0466 0.004,0.008 0.43746,0.97352 0.35424,1.09105 -0.002,0.002 -0.002,0.004 -0.004,0.008 -0.0918,0.13638 -0.079,0.32265 0.0288,0.44684 0.1227,0.14303 0.23153,0.29826 0.24754,0.51447 0.0107,0.0987 0.0107,0.10423 -0.42253,0.45128 -0.0459,0.0344 -0.0661,0.0965 -0.0523,0.15412 0.38091,0.20623 0.38091,0.20623 0.58791,0.092 0.31049,-0.17741 1.40628,0.40803 1.45429,0.43686 0.004,0.002 0.009,0.006 0.0107,0.008 0.59218,0.34262 0.50468,0.82494 0.48334,0.91919 -0.0747,0.3038 -0.15577,0.46236 -0.28915,0.53886 -0.25181,0.14526 -0.50041,0.30936 -0.73408,0.48343 -0.0395,0.0277 -0.10243,0.0189 -0.20806,-0.0554 -0.0171,-0.0122 -0.0395,-0.0288 -0.0587,-0.0444 -0.0288,-0.0233 -0.063,-0.0288 -0.0939,-0.0199 -0.0288,0.01 -0.048,0.0388 -0.0438,0.0687 0.0459,0.41025 0.27315,0.77504 0.61458,0.98682 0.006,0.003 0.009,0.006 0.0128,0.009 0.006,0.003 0.0128,0.0122 0.0128,0.0211 0.0192,0.4169 -0.95601,0.60983 -0.96455,0.60983 0,0 0,0 -0.002,0 -0.002,0 -0.002,0 -0.004,0 -0.3233,-0.0288 -0.62739,0.17408 -0.95602,0.12085 -0.27101,-0.0444 -0.47694,-0.28606 -0.76502,-0.2905 -0.6818,-0.0133 -0.6818,-0.0133 -0.80877,-0.0931 -0.0437,-0.0266 -0.50682,-0.15634 -0.67327,-0.16521 -0.45453,-0.0233 -0.80024,0.30824 -1.21956,0.40027 -0.37558,0.0798 -0.64552,-0.2905 -1.01043,-0.26057 -0.51215,0.0466 -0.68927,0.5555 -1.04031,0.82827 -0.0309,0.0255 -0.0725,0.0333 -0.11096,0.0211 -0.006,0 -0.009,-10e-4 -0.0128,-0.002 -0.25821,-0.51891 -0.73515,-0.31711 -0.99442,-0.15079 -0.0768,0.0488 -0.14831,0.0943 -0.21233,0.13305 -0.0918,0.0588 -0.2102,0.0366 -0.27742,-0.051 -0.0683,-0.0865 -0.0608,-0.21289 0.0149,-0.29383 0.13764,-0.14968 0.29342,-0.31268 0.44173,-0.46569 0.43746,-0.45571 1.01043,-0.73623 1.61541,-0.80387 0.19846,-0.0233 0.39798,-0.0199 0.59431,0.003 0.37131,0.0444 0.63592,-0.15634 0.90053,-0.35259 0.0651,-0.0477 0.0918,-0.13417 0.0651,-0.21067 -0.0224,-0.0776 -0.096,-0.12973 -0.17285,-0.1253 -0.10457,0.003 -0.2038,0.0322 -0.29983,0.12086 -0.0245,0.0222 -0.0523,0.0388 -0.0811,0.051 -0.1163,0.0532 -0.24754,0.0554 -0.3649,0.007 -0.0267,-0.0111 -0.0523,-0.0255 -0.0726,-0.0488 -0.24434,-0.26721 -0.55483,-0.46014 -0.8984,-0.55328 -0.36491,-0.0987 -0.70421,0.23395 -1.07125,0.0521 -0.24007,-0.11864 -0.20379,-0.48897 -0.15044,-0.55328 0.0587,-0.0654 0.17285,-0.0809 0.34783,-0.10977 0.27102,-0.0388 1.1278,-0.35481 1.25051,-0.49785 0.11203,-0.12972 0.36704,-1.01121 0.0267,-0.98903 -0.17712,0.0166 -0.31476,0.16299 -0.48548,0.20402 -0.0373,0.009 -0.0768,-0.002 -0.10456,-0.0277 -0.0288,-0.0266 -0.0437,-0.0665 -0.0395,-0.10645 0.002,-0.0189 0.006,-0.0333 0.0128,-0.0488 0.002,-0.002 0.004,-0.002 0.006,-0.006 0.11416,-0.20401 0.48334,-0.0887 0.49188,-0.39362 0.002,-0.0832 -0.0523,-0.1397 -0.1003,-0.19958 -0.0523,-0.0665 -0.0566,-0.16188 -0.009,-0.23284 0.0459,-0.071 0.13338,-0.10201 0.21233,-0.0743 0.002,0 0.002,0 0.002,0 0.47267,0.16299 0.99229,0.0366 1.34653,-0.3282 0.3521,-0.3659 0.47694,-0.90477 0.32329,-1.39707 -0.004,-0.0122 -0.009,-0.0233 -0.0107,-0.0344 -0.002,-0.0133 -0.006,-0.0255 -0.009,-0.0366 -0.0395,-0.19847 -0.16432,-0.36147 -0.33503,-0.44573 -0.12057,-0.0621 -0.22087,-0.16189 -0.28382,-0.28829 -0.006,-0.008 -0.0107,-0.0122 -0.0192,-0.0144 -0.0171,-0.006 -0.0331,-0.003 -0.048,0.007 -0.45454,0.28607 -0.46521,0.28607 -0.5463,-0.071 -0.004,-0.0155 -0.0128,-0.0266 -0.0224,-0.0355 -0.0149,-0.01 -0.0149,-0.01 -0.0149,-0.01 -0.1227,0.0366 -0.25394,-0.0211 -0.31689,-0.1386 -0.0608,-0.11642 -0.0331,-0.26389 0.0661,-0.34816 0.0982,-0.0876 0.23153,-0.19514 0.39798,-0.33152 0.29129,-0.23728 0.19633,-0.56548 0.20593,-0.86707 0,-0.0532 -0.0213,-0.10312 -0.063,-0.13417 -0.0395,-0.031 -0.0918,-0.041 -0.14191,-0.0233 -0.12484,0.0421 -0.25181,0.0931 -0.37558,0.14858 -0.15471,0.0698 -0.19205,0.11531 -0.29555,0.24836 -0.11203,0.14082 -0.20059,0.24726 -0.26888,0.33042 -0.0566,0.0687 -0.15044,0.0832 -0.223,0.0333 -0.0704,-0.0499 -0.0982,-0.14858 -0.0587,-0.22841 0.0213,-0.0399 0.0437,-0.0787 0.0725,-0.11643 0,-10e-4 0,-10e-4 0,-10e-4 0.26781,-0.37366 0.24114,-0.88259 -0.0576,-1.22188 z m 12.06223,-68.01173 c -82.30375,0 -149.02317,69.3334 -149.02317,154.86061 0,85.52724 66.71942,154.86285 149.02317,154.86285 82.30375,0 149.02317,-69.33561 149.02317,-154.86285 0,-85.52721 -66.71942,-154.86061 -149.02317,-154.86061 z m 44.33201,88.54421 c 0.68394,0.21288 1.16728,0.72625 1.37748,1.35604 0.009,0.0255 0.0192,0.0488 0.0309,0.0732 0.0288,0.0566 0.15044,0.23839 0.51108,0.19625 0.14191,-0.0211 1.48204,-1.34273 1.53219,-1.44807 0.10029,-0.21289 -0.18992,-0.27165 -0.39158,-0.38364 -0.47694,-0.26389 -0.78957,-0.76506 -0.82905,-1.3261 -0.0395,-0.55994 0.20166,-1.10214 0.63806,-1.43477 0.002,-0.003 0.004,-0.006 0.009,-0.007 l 2.45299,-1.47469 c 0.004,-10e-4 0,0 0.004,-10e-4 0.0416,-0.0255 0.0896,-0.041 0.13764,-0.0477 0.004,-10e-4 0.006,-10e-4 0.006,-10e-4 0.15472,-0.0188 1.22917,-0.6808 1.61968,-0.72737 0.11417,-0.0177 0.37344,0.2772 0.29555,0.49452 -0.0501,0.14082 -0.16858,0.36368 -0.45026,0.53222 -0.33503,0.20069 -1.15661,0.64198 -1.11286,1.03782 0.0565,0.49563 0.61671,0.31157 0.90907,0.50339 0.21873,0.14636 0.14404,0.25058 0.0854,0.46125 -0.002,0.004 -0.002,0.01 -0.004,0.0144 -0.16005,0.5932 -0.41719,1.14426 -0.76076,1.64543 -0.0192,0.0277 -0.0309,0.0588 -0.0267,0.0876 0.0683,0.38142 0.0683,0.38142 1.34227,0.90809 0.5687,0.23396 1.21102,-0.0787 1.75625,0.26944 1.24196,0.79278 2.1649,2.05125 3.57652,2.58125 0.46734,0.17519 2.02193,0.84156 2.3719,2.0701 0.64232,2.26081 -1.98992,2.68769 -2.9214,2.19872 -0.53775,-0.28163 -0.78103,0.34594 -1.16727,0.53665 -0.0171,0.009 -0.0374,0.0177 -0.0544,0.0266 -0.27528,0.007 -0.56017,-0.061 -0.74795,-0.1142 -0.46521,-0.13528 -2.41138,-0.15302 -3.13586,-0.4668 -0.004,-0.003 -0.009,-0.004 -0.0128,-0.006 -0.15791,-0.0832 -2.62584,-1.04558 -2.80509,-0.99014 -0.7853,0.25169 -1.71144,-0.33929 -2.44019,0.2528 -0.42892,0.34705 -0.95068,0.53333 -1.37534,0.88481 -0.59217,0.48454 -0.61671,0.50339 -0.62525,0.64531 -0.002,0.0144 -0.002,0.0277 -0.002,0.041 -0.0192,0.16299 -0.0352,0.3027 -0.22513,0.38807 -0.22941,0.10201 -0.59645,0.15967 -0.77783,0.15967 -0.52923,0.001 -1.05845,0.0965 -1.58981,0.0322 -0.47907,-0.0565 -0.94001,0.28164 -1.42122,0.0621 0,0 0,0 -0.002,0 -0.88346,-0.38919 -1.63355,-1.01676 -2.19051,-1.82839 l -0.5559,-0.8072 c 0,-10e-4 0,-10e-4 0,-0.003 -0.0395,-0.0588 -0.0437,-0.13527 -0.009,-0.19847 0.048,-0.0854 0.14405,-0.15191 0.33717,0.0421 0,10e-4 0.002,0.002 0.004,0.003 0.0267,0.0322 0.0725,0.0388 0.11096,0.0199 0.0374,-0.0211 0.0544,-0.0654 0.0459,-0.10755 -0.11096,-0.47899 -0.30195,-1.18972 -0.14617,-1.65874 0.004,-0.006 0.004,-0.009 0.006,-0.0144 0.0939,-0.27942 0.47481,-0.21511 0.56657,-0.49896 0.1067,-0.32931 -0.0704,-0.632 -0.0939,-0.94912 -0.0128,-0.14968 0.14191,-1.54342 0.14191,-1.54786 0.0224,0 0.0267,0 0.0267,0 0.25607,-0.12751 0.36917,-0.32709 0.42145,-0.55439 0.14618,-0.60096 0.40226,-1.15536 0.76076,-1.64766 0.1003,-0.13305 0.20593,-0.44351 0.46841,-1.21744 0.10029,-0.29494 0.12483,-0.36701 0.55483,-0.49008 0.52282,-0.15191 1.07551,-0.19737 1.61754,-0.12751 0.28595,0.0366 0.63379,0.0987 1.04458,0.20401 0.0373,0.009 0.0704,0.0366 0.0875,0.0721 0.0224,0.0477 0.006,0.10534 -0.0416,0.13195 -0.11631,0.0687 -0.18353,0.20845 -0.15792,0.35037 0.0267,0.15967 0.15792,0.27498 0.31476,0.2772 0.19419,0.002 0.36704,-0.0809 0.52282,-0.15634 0.26035,-0.12307 0.35424,-0.16742 0.57084,-0.0177 0.16858,0.11864 0.25821,0.32598 0.23153,0.53554 -0.0587,0.46015 -0.65619,0.45128 -0.64979,0.82272 10e-4,0.15634 0.095,0.28829 0.2326,0.33486 z m -44.33201,190.26966 c -33.90547,0 -64.49796,-14.7047 -86.21744,-38.30517 -0.99016,-1.07663 -2.23426,-3.80756 -2.24279,-4.1779 -0.0245,-0.86152 -0.19206,-1.72416 -0.49615,-2.52692 -0.25608,-0.67968 -0.55803,-1.35161 -0.85465,-2.02242 -1.00083,-2.26746 3.50076,-2.64889 4.75127,-4.77775 0,0 0,0 0,-0.0111 0.096,-0.19515 0.85038,-0.29494 1.75625,0.37699 0.72341,0.53665 1.77119,-0.70408 1.67516,-1.13873 -0.29982,-1.39041 -0.30196,-1.61771 -0.13764,-2.88284 0.28168,-2.16102 -0.28809,-7.51645 -0.53136,-8.24048 -0.82264,-2.44487 -0.99869,-3.68338 -1.01043,-4.27437 -0.006,-0.43575 1.115,-0.76395 1.31666,-1.4902 0.40865,-1.46582 2.81363,-4.18345 3.55731,-5.49181 0.64553,-1.13429 1.16088,-2.41937 1.00403,-3.72663 -0.35424,-2.93828 -9.3649,-13.66466 -11.91818,-15.65939 -2.01766,-1.57448 -3.47196,-1.58557 -3.47196,-1.59 0.11843,-1.31502 -0.37131,-2.61008 -1.31666,-3.49046 -0.35637,-0.33374 -0.62311,-0.77282 -0.88559,-1.21522 -0.35424,-0.59764 -0.97949,-0.9591 -1.65275,-0.9591 -0.6754,0 -1.30279,0.35924 -1.65489,0.95466 0,0 -0.002,0 -0.002,0.002 0.60392,-2.09893 0.63379,-2.19539 -0.96455,-4.23556 -0.85892,-1.09326 -0.96882,-0.99014 0.0651,-3.00369 0.15044,-2.74979 -5.03082,-11.52915 -9.61991,-16.90564 -0.15044,-0.17408 -0.37131,-0.26611 -0.64232,-0.21511 -0.47054,-0.44795 -2.74214,-9.12418 -3.24682,-11.16324 -0.0213,-0.0976 0,-0.20069 0.063,-0.2772 0.40012,-0.50006 0.56016,-1.16089 0.43746,-1.79623 -0.1003,-0.52778 -0.29769,-1.13872 -0.3297,-1.67426 -0.0566,-0.99015 -0.95281,-1.80067 -1.11286,-1.68424 -0.24754,0.18294 -0.51215,0.20401 -0.74582,0.10311 -0.24007,-0.1009 -0.41719,-0.31711 -0.46734,-0.62313 -0.19205,-1.0722 -1.08938,-1.84391 -2.14036,-1.8428 -0.44173,0 -0.51109,-0.0954 -0.58151,-0.45461 -0.0149,-0.0743 -0.0171,-0.1519 -0.004,-0.22841 0.52282,-3.22989 0.88132,-4.95294 1.19395,-6.35998 0.004,-0.0188 0.009,-0.0377 0.0107,-0.0566 4.74486,-22.10362 15.16714,-41.97969 29.59593,-57.89075 0.0608,-0.0632 0.14404,-0.0876 0.22513,-0.0643 1.41695,0.40914 1.31132,0.0898 2.52341,-1.43255 0.70208,-0.8837 1.97925,-1.21412 2.68666,-1.47136 0.71061,-0.25834 1.88429,-0.37809 1.88856,-0.37809 0.6818,-0.13195 2.63865,0.3282 3.20735,-0.14969 0.4748,-0.40027 -0.13551,-0.53887 0.14617,-0.97573 0.26675,-0.4169 0.49615,-0.86152 0.67967,-1.325 0.15578,-0.39251 0.62312,-0.51004 0.96882,-0.73069 0.59004,-0.37698 0.0213,-0.37477 -0.0918,-0.57656 -0.0875,-0.15412 0.009,-0.7185 0.22727,-0.7573 0.002,0 0.004,10e-4 0.009,0.003 0.31049,0.29827 0.74369,0.41912 1.15448,0.31933 0.3585,-0.0843 0.48547,-0.2151 0.59004,-0.44351 0.0725,-0.15856 0.20379,-0.27498 0.3649,-0.32488 0.002,0 0.004,-10e-4 0.006,-10e-4 0.96882,-2.42048 -3.33859,-1.04891 -3.34072,-1.05335 -0.17285,-0.35814 2.27587,-1.16866 2.65678,-1.28286 0.002,0.002 0.004,0.003 0.004,0.006 0.004,0.002 0.006,0.004 0.0128,0.006 0.22727,0.0643 0.43106,0.0277 0.62739,-0.051 1.16301,-0.47567 2.47753,0.11864 2.93633,1.32722 0,10e-4 0,0.002 0,0.002 0.12484,0.32488 0.38945,0.57103 0.71488,0.65973 0.38091,0.10644 0.76289,0.22065 1.16941,0.0632 2.09022,-0.8083 2.6984,-0.11531 4.44291,-0.91918 0.004,-0.002 0.009,-0.004 0.0149,-0.008 2.27374,-1.05446 2.37403,-6.29457 5.46401,-9.17187 0.30409,-0.28274 0.63165,-0.54109 0.97736,-0.76728 0.56443,-0.37033 0.93361,-0.94357 1.32732,-1.48909 0.18992,-0.25724 0.39799,-0.51559 0.61672,-0.74733 0.26461,-0.27941 0.31476,-0.70851 0.12057,-1.04336 -0.2006,-0.34483 -0.59965,-0.50006 -0.96669,-0.37477 -0.26034,0.0876 -0.75009,0.25835 -0.89626,0.0244 -0.0523,-0.0832 -0.0523,-0.19071 -0.004,-0.27498 0.10883,-0.18849 0.40012,-0.57767 0.42466,-0.7573 0.0192,-0.14857 0.0918,-0.28495 0.20379,-0.38253 0.14618,-0.12751 0.30836,-0.23949 0.47694,-0.33263 1.60474,-0.87262 3.22549,-1.71197 4.87184,-2.51251 0.26461,-0.12862 0.5751,-0.0687 0.77783,0.13971 0.43106,0.44019 0.75649,-0.0998 1.15661,-0.55107 0.49401,-0.56104 1.10219,-1.00899 1.77545,-1.30836 0,-10e-4 0.002,-10e-4 0.002,-0.002 -0.0854,0.0754 -0.16218,0.15856 -0.22514,0.25946 0,0.61094 -0.77142,0.95909 -0.18138,1.12541 0.18992,0.0532 0.65832,-0.39029 0.71701,-0.42023 0.0661,-0.0355 0.13551,0.007 0.0416,0.17297 0.49615,-0.26721 1.18328,-0.88703 1.76692,-1.45694 0.69141,-0.67969 1.51725,-1.21855 2.40925,-1.56782 0.99016,-0.3914 0.95601,-0.0688 0.73408,-0.008 -0.30622,0.0854 -0.58151,0.25058 -0.83118,0.78058 -0.0747,0.16188 -0.51215,0.59209 -0.65192,0.71628 0,0 1.17367,-0.51448 2.09875,-0.67969 0.26248,-0.0488 0.55269,-0.23284 1.01043,-0.53887 0.12484,-0.0843 0.14404,0.0166 0.23367,0.12973 0.096,0.12197 0.73728,-0.16964 0.86532,-0.30492 0,-10e-4 0,-10e-4 0.002,-10e-4 0.0832,-0.092 0.10457,-0.22951 0.048,-0.34372 -0.0747,-0.1519 -0.46521,-0.0665 -0.35424,-0.28385 0.0918,-0.18184 0.40012,-0.0532 0.5623,-0.17851 0.0395,-0.0311 0.0224,-0.0976 -0.0288,-0.10423 -0.002,-0.006 -0.002,-0.009 -0.002,-0.0155 -0.0213,-0.0743 0,-0.15523 0.0523,-0.20956 0.1067,-0.11088 0.96028,-0.53443 0.93361,-0.66084 -0.004,-0.004 -0.004,-0.007 -0.004,-0.01 4.09934,-1.40815 8.02157,-2.74424 12.34071,-3.48158 0.87706,-0.15079 0.87279,0.77615 0.45453,0.92916 -0.96668,0.34594 -2.05927,0.35703 -2.87125,1.0855 -0.0704,0.0632 -0.0896,0.16854 -0.0437,0.25391 0.0437,0.0843 0.13977,0.1253 0.23153,0.0976 0.16432,-0.051 0.46094,-0.16299 1.16942,-0.43797 0.1227,-0.0477 0.27314,0.0399 0.25394,0.1774 -0.009,0.051 -0.0395,0.0954 -0.0875,0.11532 -0.34783,0.15966 -0.73515,0.2273 -1.07338,0.41136 -0.0662,0.0366 -0.10243,0.1142 -0.0896,0.19071 0.0331,0.18627 -0.12697,0.54663 -0.0213,0.65085 0.002,10e-4 0.002,0.002 0.002,0.004 -0.0245,0.0322 -3.44635,2.45374 -4.7406,2.54022 -0.002,0 -0.004,10e-4 -0.006,10e-4 -1.55246,0.071 -2.98648,0.7196 -3.41114,1.0855 -0.42893,0.37034 -0.8984,0.68523 -1.39668,0.94358 -1.04564,0.53998 -1.97925,1.45694 -2.5885,2.14661 -0.31049,0.35259 0.23581,0.4801 0.6626,0.65418 0,0 0.29555,0.0976 -0.15791,0.1641 -1.71678,0.24393 -3.18815,2.25527 -3.63201,2.92719 -0.0854,0.12862 -0.0854,0.29826 -0.002,0.42466 0.002,0.006 0.006,0.009 0.009,0.0144 -0.79383,0.81717 -0.87065,0.89479 -1.45429,2.12997 -0.0374,0.0765 -0.0245,0.16965 0.0309,0.23396 0.0725,0.0876 1.01256,0.14525 1.09579,0.31822 0.12697,0.25834 -0.36278,0.48232 -0.25394,0.69299 0.0288,0.0599 0.0811,0.0998 0.14404,0.11309 0.15044,0.0333 -0.47267,0.67082 -0.56017,0.8072 -0.14404,0.22619 0.0459,0.81717 0.37131,0.80276 0.3297,-0.0133 0.54203,-0.22398 0.85252,-0.59653 0,0 0.84612,-0.49008 1.41482,-0.98349 0.55483,-0.47678 1.68156,-0.61537 2.09875,-1.43255 0.22727,-0.44462 0.64019,-0.7329 0.97949,-0.8083 0.14831,-0.0311 0.29342,0.0543 0.3457,0.2018 0.0437,0.2029 2.64505,-0.99347 2.55329,-1.4636 -0.0811,-0.43797 0.16005,-0.48232 0.43106,-0.36035 0.18992,0.082 0.3457,0.0222 0.46841,-0.0843 0.78103,-0.67636 1.96537,-1.49797 2.94913,-1.23519 0.24007,0.0632 0.49188,0.0277 0.70421,-0.0987 0.98589,-0.58433 1.09579,-0.30935 0.86105,-0.2151 -0.25607,0.10311 -0.97735,0.37477 -0.83331,0.61759 0.0374,0.061 0.10883,0.0854 0.17285,0.0599 0.42253,-0.17297 0.86532,-0.26389 1.31879,-0.27165 0.62952,-0.0111 1.55886,-0.11753 2.38791,-0.57768 0.0352,-0.0188 0.0726,-0.0388 0.11096,-0.0588 0.006,-0.004 0.0149,-0.008 0.0213,-0.0111 1.96965,-1.03893 2.78162,-1.72194 3.19668,-1.43033 0.12697,0.0898 0.19846,0.24504 0.18565,0.40581 0.002,0.001 0.004,0.002 0.006,0.004 0.3233,0.23617 0.66687,0.008 1.05205,-0.0954 0,0 0.31689,0.33486 1.50231,0.31823 -0.28168,0.75286 12.13691,-2.05015 19.99737,-8.81928 2.15316,-1.85388 4.54747,-3.56917 6.93751,-5.10595 12.98516,0.73845 25.41336,3.62683 36.96557,8.33917 0.38091,0.15745 0.60605,0.56881 0.54416,0.99125 -0.0939,0.61427 -0.7853,0.78724 -0.83971,0.93471 -0.16432,0.45016 0.95281,1.04004 1.27931,1.38265 0.18139,0.1896 0.18779,0.4923 0.0149,0.68967 -0.004,0.003 -0.009,0.007 -0.0149,0.003 -0.5527,-0.13749 -1.13527,0.0111 -1.56526,0.39695 -0.41933,0.37809 -1.01257,0.64198 -1.3604,0.77504 -0.20593,0.0787 -0.39799,0.20069 -0.56017,0.35592 0,10e-4 0,0.002 0,0.002 -0.19419,-0.0599 -0.40012,-0.0543 -0.59004,0.0188 -0.7789,0.29938 -1.2249,1.83393 -1.06698,2.40052 0.063,0.22065 0.0192,0.46347 -0.12484,0.64864 -0.18139,0.23728 -0.48548,0.32931 -0.76076,0.23174 -0.16218,-0.0588 -0.61885,0.34594 -0.39585,0.52224 0.26248,0.20623 -0.0982,0.35592 -0.36704,0.55106 -0.1291,0.0954 -0.29982,0.12751 -0.46307,0.0765 -0.95281,-0.30048 -0.89626,-0.54774 -1.18755,0.22397 -0.13551,0.36147 -0.32543,0.70297 -0.55803,1.009 -0.14831,0.19403 -0.13124,0.47566 0.0437,0.64974 1.39988,1.40372 -0.61885,1.17753 -1.34227,0.83714 -0.65619,-0.30825 -1.03817,0.84932 0.17712,0.85487 0.33183,0.002 0.64766,0.14858 0.87066,0.40692 0,-10e-4 0,-10e-4 0,-10e-4 0.62525,0.7185 -0.80877,0.48343 -1.69223,0.15967 -0.75222,-0.2772 -1.4671,-0.68412 -2.09235,-1.19971 -0.39585,-0.32709 -0.54843,-0.88037 -0.37558,-1.37378 0.17072,-0.49341 0.62952,-0.81717 1.13527,-0.80387 0.72981,0.02 1.35293,-0.54219 1.43829,-1.29506 0.0854,-0.75397 -0.39799,-1.44918 -1.11286,-1.6033 -1.75519,-0.38142 -3.70776,-0.14636 -5.33278,-0.92916 -1.40201,-0.67304 -2.56715,-0.55329 -2.92353,-1.04448 -0.15471,-0.21288 -0.21659,-0.48343 -0.17712,-0.74621 -0.75649,-0.1519 -1.23343,-0.24726 -1.55886,-0.316 -0.31049,-0.0665 -1.26117,-0.081 -2.55862,0.34039 -2.80296,0.92473 -5.45974,3.62684 -5.45974,3.62684 0,0 -0.53349,0.9469 -1.04991,1.56227 -0.47054,0.55994 -0.82691,1.23741 -1.35293,1.74412 -0.20806,0.19958 -0.34997,0.46126 -0.40439,0.74732 0,0.002 -0.002,0.003 -0.002,0.003 -0.004,10e-4 -0.006,0.002 -0.009,0.002 -0.27315,0.082 -0.48761,0.30491 -0.56443,0.58987 -0.34144,1.26291 -1.29638,3.14451 -6.42323,5.38315 0,0.001 -0.002,0.001 -0.002,0.001 -1.50445,0.66083 -2.45086,2.22976 -2.36977,3.9251 0.0832,1.69533 1.17795,3.15892 2.73787,3.65788 1.93764,0.62092 2.38364,-1.60663 4.57629,-0.92806 0.82264,0.25502 1.48417,0.90255 1.77332,1.74523 0.36064,1.04004 0.85252,1.65098 0.89627,2.98041 0.43746,0.4535 1.72104,1.45584 1.87361,0.77504 0.36278,-1.61328 1.93338,-0.55328 2.61091,-1.89269 0.57937,-1.14981 -0.28915,-2.3595 0.1355,-3.51707 0.002,-0.009 0.006,-0.0177 0.0107,-0.0255 0.5335,-1.36159 0.67114,-2.83849 0.40226,-4.27991 -0.12484,-0.67192 0.0395,-1.692 0.34997,-3.62794 0.1227,-0.75508 1.55032,-1.14759 1.89175,-1.70309 0.59431,-0.96354 -0.39798,-2.80301 1.08192,-3.14784 0.73942,-0.17075 2.06888,0.18406 2.24067,0.98016 0.0651,0.28274 0,0.5799 -0.17286,0.80831 -0.41932,0.5555 -0.60818,1.31723 -0.98375,1.91265 -0.75436,1.19971 -0.91654,2.70544 -0.43533,4.04817 0.41505,1.15647 1.08619,2.20427 2.1489,2.29297 0.30409,0.0255 0.61031,-0.0543 0.86639,-0.22841 0.002,-10e-4 0.002,-10e-4 0.004,-0.002 0.002,-0.002 0.004,-0.003 0.006,-0.003 0.004,-10e-4 0.004,-10e-4 0.006,-0.002 l 1.52578,-0.5555 c 1.26331,-0.45904 2.62585,-0.54885 3.93503,-0.25391 0.12484,0.0277 0.22513,0.12529 0.25608,0.25391 0.0331,0.12751 -0.009,0.26389 -0.10243,0.35259 -1.58127,1.46138 -1.88216,0.49008 -3.54452,0.8072 -0.5687,0.10644 -1.00616,0.58211 -1.07978,1.17863 -0.0651,0.53666 0.17925,1.05778 0.61245,1.33942 0.0853,0.0554 0.1355,0.15744 0.12697,0.26056 0,0.003 -0.002,0.006 -0.002,0.01 -0.0352,0.52113 -0.34997,0.97906 -0.81304,1.18196 -0.34997,0.15634 -0.74155,0.14636 -1.07765,-0.0122 -0.26034,-0.12086 -0.5623,-0.0954 -0.8045,0.0687 -0.47481,0.32598 -0.30409,0.56326 -0.39799,0.99458 -0.14617,0.69077 -0.11096,1.41148 0.11204,2.08119 0,0.001 0,0.001 0,0.001 0.36277,1.09991 -1.59194,3.06911 -2.38364,2.91832 -1.60687,-0.30713 -3.2671,-0.0432 -4.70966,0.75286 -0.68393,0.37699 -1.51938,0.265 -2.08808,-0.27719 -0.002,-0.004 -0.006,-0.007 -0.0107,-0.01 -0.37878,-0.36146 -0.0192,-0.52335 -0.49401,-0.8327 -0.1003,-0.0654 -2.60877,1.02452 -2.71974,1.06443 -0.1163,0.0444 -0.24434,0.0299 -0.3457,-0.0377 -0.10456,-0.0676 -0.17285,-0.18074 -0.18565,-0.30603 0,-0.006 0,-0.01 -0.002,-0.0144 -0.0854,-0.75287 -3.34285,-0.65529 -0.80237,-3.58581 0.004,-0.004 0.006,-0.01 0.0128,-0.0133 0.26247,-0.30048 0.38091,-0.71295 0.31902,-1.11543 -0.10029,-0.67082 0.031,-1.30948 -0.5687,-1.57337 -0.002,0.003 -0.004,0.006 -0.006,0.008 -1.32946,1.44364 -1.96751,3.44167 -1.72317,5.42528 0.16218,2.20538 -0.85252,1.83393 -1.62502,1.81176 -0.32756,-0.01 -0.64019,0.13194 -0.85038,0.38807 -0.002,0.003 -0.006,0.008 -0.0107,0.01 -0.30836,0 -0.74796,0 -1.48844,0.0732 -0.31476,0.0299 -0.60391,0.19847 -0.79597,0.45904 -0.0213,0.0277 -0.0309,0.0654 -0.0245,0.0987 0.0267,0.18517 -0.0875,0.35925 -0.26248,0.40249 -0.57083,0.13971 -1.09152,0.42466 -1.52791,0.8327 -1.01257,0.95355 -1.53219,1.35382 -2.59064,1.96809 -0.74368,0.4291 -1.39667,0.9846 -1.95257,1.65209 -0.23367,0.27941 -0.72982,0.58433 -1.90243,1.2751 -0.10883,0.0632 -0.18565,0.17075 -0.21446,0.29715 -0.0587,0.26279 -0.26888,0.46237 -0.52496,0.50228 -1.04244,0.15523 -1.34439,-0.10866 -1.94404,-0.51669 -0.30622,-0.21067 -0.54416,0.22619 -0.4684,0.51004 0.002,0.004 0.004,0.01 0.004,0.0144 0.0726,0.27276 0.0224,0.56548 -0.13551,0.7961 -0.16005,0.22952 -0.41292,0.37145 -0.68607,0.38586 -0.71915,0.0355 -1.44043,-0.12197 -2.08168,-0.46015 -0.0587,-0.0288 -0.1227,-0.0355 -0.18352,-0.0155 -1.04564,0.34705 -1.66129,1.64987 -1.40202,1.6787 1.80427,0.20291 1.77333,0.53 2.49674,1.00678 0.85892,0.56548 0.44387,2.30516 1.74665,2.45152 0.006,10e-4 0.0128,10e-4 0.0213,0.002 0.16218,0.0144 0.29555,1.38598 0.32756,1.55784 0.0213,0.12862 -0.0309,0.25724 -0.1355,0.33042 -0.38945,0.26721 -0.64766,0.69742 -0.71061,1.17753 -0.1163,0.91031 -0.0267,1.87828 -0.61672,2.65886 -0.24754,0.33153 -0.81517,0.93692 -1.48417,0.67193 -0.71274,-0.28274 -1.47564,-0.45017 -2.23853,-0.48676 -3.15079,-0.15412 -4.99774,-0.84933 -5.92068,-1.3372 -0.67966,-0.35813 -1.50871,-0.18849 -2.00486,0.41358 -0.22086,0.01 -0.48974,0.0233 -0.74582,0.0355 -0.4652,0.0277 -0.7917,0.48565 -0.68393,0.95245 0.2454,1.06332 0.24754,2.14439 -0.95068,5.32882 -0.0459,0.12418 -0.11097,0.29161 -0.17072,0.40803 -0.38731,0.75286 -1.78826,2.22533 -1.44789,2.61562 0.0373,0.0432 0.0918,0.0688 0.15044,0.0688 0.28915,0.008 0.54843,0.19736 0.65406,0.4801 0.0875,0.24172 0.10457,0.5045 0.0437,0.75508 -0.0982,0.41469 -0.53349,1.86165 -0.36064,2.21979 0.10029,0.20069 0.27315,0.34816 0.48334,0.41136 0.30409,0.0931 0.51109,0.34483 0.77356,0.51115 0.19633,0.11864 0.83332,-0.16854 1.21316,-0.3404 0.28168,-0.12307 0.45667,-0.20512 1.07765,0.53887 0.57724,0.68634 0.12697,2.27412 1.34653,2.30073 0.3329,0.002 0.52069,-0.33375 0.60391,-0.53222 0.0896,-0.22175 0.0896,-0.22175 2.43806,-0.75397 1.04244,-0.23839 2.05073,0.44462 3.09424,0.11864 0.80024,-0.25391 0.84185,-1.35272 1.65703,-1.59222 0.53989,-0.16077 1.11712,0.15191 1.65062,-0.13416 0.28808,-0.16188 0.0224,-1.07108 0.33716,-1.36048 0,-10e-4 0.002,-0.002 0.004,-0.002 0.48334,-0.43353 0.6754,-1.12541 0.48334,-1.75964 -0.0896,-0.3038 -0.0704,-0.39583 -0.0267,-0.61315 0.0544,-0.26279 0.82157,-0.71961 1.26117,-1.77406 0.0395,-0.0887 0.0832,-0.17186 0.13977,-0.22619 1.44043,-1.36713 3.38874,-1.68646 5.01802,-2.65665 1.43189,-0.85376 0.43319,-3.15006 2.12329,-3.84859 1.56526,-0.64642 2.72614,1.60885 4.33408,0.65529 1.70504,-1.01121 3.8262,-2.2719 4.27433,-2.29186 0.46307,-0.0233 0.88132,0.0965 1.23556,0.26389 0.53776,0.25613 0.99443,0.67304 1.30705,1.19638 1.54606,2.58347 4.4952,3.68006 6.29093,5.9952 0.27101,0.34705 1.64208,1.1986 2.16277,1.70642 0.84612,0.82161 0.36277,-0.24837 1.09579,1.0733 0.004,0.006 0.009,0.0133 0.0107,0.02 0.36064,0.57768 0.99443,1.59665 0.39371,1.86054 -0.42145,0.18184 -0.41505,0.31379 -0.41078,0.46458 0.009,0.33375 -0.26248,0.64421 -0.0662,0.99126 0.0566,0.0976 0.26888,0.39916 0.72128,0.17075 0.53563,-0.28607 0.33717,-0.38808 0.55057,-0.81828 0.60818,-1.26624 0.49401,-1.15536 0.49401,-1.15536 0.17712,-0.13749 0.52069,-0.0233 0.57937,-0.34594 0.13977,-0.76284 -0.37771,-1.02119 -0.71701,-1.1864 -0.21447,-0.11088 -0.62099,-0.30824 -0.37771,-0.96131 0.006,-0.0166 0.0128,-0.0333 0.0213,-0.0499 0,-0.004 0.004,-0.0111 0.006,-0.0177 0.25607,-0.57324 0.90266,-0.83048 1.46283,-0.58433 0.40865,0.18295 0.72341,0.27054 0.87492,0.71073 0.0267,0.0787 0.0437,0.15523 0.0416,0.214 -0.009,0.19293 -0.0149,0.37366 0.0661,0.44906 0.11417,0.10866 0.50041,0.0177 0.60604,-0.1885 0.0651,-0.11642 0.14191,-0.51115 0.13551,-0.63422 0,-0.004 0,-0.004 0,-0.008 0,-0.003 0,-0.01 -0.002,-0.0155 -0.002,-0.0188 -0.0107,-0.0366 -0.0192,-0.0521 -1.0083,-1.64322 -2.89045,-1.76962 -4.34048,-2.63891 -0.16218,-0.0965 -0.26461,-0.26611 -0.28168,-0.44684 -0.0395,-0.37698 -0.3457,-0.66194 -0.71061,-0.65972 -0.88986,0.01 -1.72744,-0.4413 -2.23426,-1.20525 l -3.04623,-4.607 c -0.12697,-0.19182 -0.24754,-0.39251 -0.35851,-0.59875 -0.20059,-0.37587 -0.0267,-0.83713 0.34357,-0.9846 0.0224,-0.01 0.0459,-0.0189 0.0726,-0.0255 0.58791,-0.18295 1.2217,0.0577 1.55886,0.59098 0.16859,0.26722 0.33717,0.56659 0.64233,0.54663 0.37131,-0.0233 0.73515,0.0876 1.03817,0.31379 l 5.23675,3.96834 c 0.002,0.003 0.004,0.004 0.006,0.006 0,0 0.446,0.0987 1.11499,0.56327 0.14405,0.0987 0.31263,0.14636 0.47908,0.13859 0.26247,-0.0122 0.51855,0.0776 0.72341,0.25059 0.79383,0.66638 1.30705,1.62659 1.42762,2.67993 0.0544,0.47123 0.0875,0.90033 0.11097,1.20525 0,10e-4 0,10e-4 0,0.002 0.0245,0.39251 0.22086,0.75175 0.53135,0.97905 0.14191,0.10423 0.32117,0.24505 0.42253,0.35482 0.12697,0.14081 0.15044,0.18184 0.38945,0.60428 0.096,0.1763 0.70847,0.74178 0.76289,0.79057 0.002,0.002 0.006,0.004 0.009,0.008 0.0245,0.0222 0.0939,0.0687 0.20592,0.0687 0.004,0 0.0107,0 0.0149,0 0.18779,0.003 0.36491,-0.0765 0.54843,-0.0665 0.5687,0.0355 1.41482,0.78169 2.06781,0.44462 0.0608,-0.0299 0.74155,-0.44352 0.74155,-0.44352 l 0.0107,-0.008 c 1.5834,-0.75841 -0.37131,-1.53123 -0.43533,-2.28298 -0.0213,-0.27166 0.0726,-0.47013 0.24541,-0.5932 0.16431,-0.11532 0.37558,-0.14193 0.58791,-0.0377 0.11843,0.0554 0.26034,0.0399 0.36704,-0.0388 0.002,0 0.002,0 0.002,0 0.12911,-0.0965 0.2166,-0.23839 0.24967,-0.39805 0.17072,-0.86264 1.02537,-1.11544 1.86295,-1.11544 0.70208,0 1.39455,0.18406 2.007,0.53776 0.24754,0.14414 0.53562,0.21289 0.82477,0.19625 0.5463,-0.0333 1.06485,-0.2273 1.50445,-0.56437 0.20592,-0.15855 -0.26248,0.42467 -1.29639,0.83159 -0.009,0.004 -0.0171,0.008 -0.0245,0.0111 -0.43319,0.18406 -0.67113,0.66305 -0.56656,1.13429 0.21019,0.9469 2.11155,1.88382 0.86639,3.10348 -0.0149,0.0144 -0.0288,0.0288 -0.0459,0.0421 0.002,0.001 0.004,0.001 0.006,0.002 0.6914,0.29271 1.26864,0.8083 1.65275,1.47579 1.25904,2.19428 5.47895,2.88284 5.84919,1.94813 0.002,-0.003 0.002,-0.008 0.004,-0.0111 0.18566,-0.50117 0.72768,-0.75397 1.21103,-0.56326 0.96241,0.37921 1.8256,1.12653 2.92993,1.01121 0.62525,-0.0687 1.08192,-0.30824 1.45643,-0.64198 1.03817,-0.92584 2.33455,-1.49021 3.69922,-1.60109 0.0128,0 0.0245,0.004 0.0309,0.0144 0.0107,0.01 0.0128,0.0222 0.0107,0.0333 -0.68607,4.18566 3.79739,8.83479 -0.62525,12.63127 -0.34997,0.30048 -0.97308,0.45239 -1.41908,0.53555 -3.99051,0.73179 -8.03117,0.0754 -12.03449,0.35702 -2.31321,0.16189 -2.64824,-0.69853 -3.37166,-0.71184 -0.004,0 -0.009,0 -0.0107,0 -0.006,0 -0.0149,0 -0.0213,0 -0.78103,0.0166 -0.92934,0.0177 -2.09448,-0.25834 -0.72342,-0.17075 -2.65679,-3.05692 -5.2933,-0.82605 -0.75435,0.63977 -1.20675,1.47136 -1.18328,1.94814 0.32756,6.84785 -7.78363,1.81286 -8.38541,1.0611 -0.92507,-1.1498 -2.1585,-1.99026 -3.54451,-2.40606 -1.52578,-0.45793 -3.36313,-1.07995 -4.524,-1.70974 -0.87919,-0.479 -1.94191,-0.76839 -2.39217,-0.79389 -0.16218,-0.0255 -0.24434,-0.8582 0.2518,-1.37822 1.31132,-1.37379 1.72104,-1.92596 1.30492,-2.65554 -1.09579,-1.91598 -0.37558,-1.74855 -1.34013,-3.04583 -0.002,-0.003 -0.006,-0.009 -0.0107,-0.0122 -0.3393,-0.45571 -0.87492,-0.7074 -1.43189,-0.6697 -16.3899,1.0855 -19.91627,1.58001 -23.15029,3.19108 -0.28595,0.1397 -0.86853,0.4291 -1.78186,0.0122 -0.69994,-0.32044 -1.49164,-0.35037 -2.21292,-0.0887 -1.06058,-0.72847 -2.45086,-0.6564 -3.43675,0.17519 l -5.33704,4.50721 c -0.53989,0.45571 -1.01257,1.00567 -1.38601,1.6155 -0.96242,1.58112 -0.90053,2.76531 -0.87279,3.33522 0.0875,1.77738 -4.79928,5.05051 -7.38351,4.74449 -0.004,-10e-4 -0.006,-10e-4 -0.0128,-10e-4 0,-0.003 0,-0.003 0,-0.003 -1.18328,0.49452 -2.20225,0.92584 -8.14213,9.53223 -3.26176,4.72342 -3.26176,4.72342 -2.6045,6.034 0.35637,0.70297 1.07551,2.1333 0.53135,6.05618 -0.0309,0.25391 -0.0811,0.51226 -0.13977,0.76285 -0.0288,0.11753 -0.063,0.2406 -0.096,0.35481 l -2.28654,7.89454 c -0.64019,2.20427 -0.21873,4.60811 1.1278,6.4365 0.009,0.0111 0.0149,0.0199 0.0213,0.0322 l 0.49828,0.97684 c 0.0832,0.16077 0.16218,0.33153 0.23367,0.49784 0.48974,1.15203 1.17368,7.59961 3.00675,10.52902 0.28809,0.45682 0.62099,0.88149 0.9987,1.26734 l 5.7809,5.90761 c 1.01684,1.03782 3.0345,1.74522 4.43224,2.02464 4.12602,0.82272 8.50491,0.85487 12.56158,2.44712 0.19845,0.0754 0.4652,0.18184 0.6754,0.19293 4.69898,0.32931 8.55292,-3.73331 13.1036,-4.06706 1.06911,-0.0754 3.24682,0.64975 3.79952,3.96061 0.41078,2.46483 4.07373,1.68536 5.80011,1.15868 0.78103,-0.23617 1.61968,-0.19292 2.37617,0.12751 0.006,0 0.0107,0.0111 0.0128,0.0155 0,0 0,0.0133 0.002,0.02 0.0523,0.53443 0.50682,0.92694 1.02324,0.88148 0.0149,0 0.0309,0 0.0459,0 0.29555,-0.0322 0.58577,0.11309 0.74795,0.36812 0.94215,1.47911 0.75863,2.436 0.61458,3.15116 0,0 0,0 0,0 -0.004,0.0111 -0.004,0.0177 -0.006,0.0255 l -0.0501,0.24061 c 0,0.0111 -0.002,0.0177 -0.004,0.0277 -0.0373,0.1774 -0.0662,0.36146 -0.0918,0.5433 -0.47695,3.62684 -0.18779,5.31441 -1.80427,6.65936 -0.17499,0.14747 -0.30836,0.33153 -0.39798,0.54553 1.75305,3.73771 5.57711,5.63484 5.57711,5.63484 0.56016,0.61981 3.85714,6.5252 4.20711,9.13195 0.53562,3.96723 0.53562,3.21326 0.63378,3.38512 1.68583,2.8651 0.21233,4.21449 -0.81731,4.76001 -0.31262,0.16853 -0.47267,0.29715 -0.55803,0.47234 -0.15471,0.31379 -0.33289,0.62757 -0.52709,0.91586 -0.16858,0.24947 -2.278,6.16927 -2.26733,7.39559 0,0 0,0 0,0.0111 0.0107,1.12652 1.80106,2.2087 2.42952,3.12234 l 4.05559,5.88431 c 0.0683,0.10201 0.14404,0.20402 0.21873,0.30049 1.39988,1.83835 -0.75649,4.43734 0.49828,6.28236 0.40866,0.60207 1.40842,3.017 1.93337,3.39399 0.82265,0.58876 4.26366,5.7557 3.24256,6.63275 -0.10883,0.0931 -0.0939,0.34483 -0.048,0.48564 0.30835,0.92251 4.47598,2.39276 6.01671,1.70864 2.28867,-1.01565 7.08582,-1.81064 9.04266,-1.79512 2.70267,0.0222 15.71557,-9.67415 14.6902,-13.01491 -0.0149,-0.0433 -0.0171,-0.0909 -0.0107,-0.13417 0,0 0,0 0,0 1.52152,-1.86719 5.93669,-4.16236 5.81825,-4.39853 -0.004,0 -0.006,-0.0111 -0.009,-0.0111 0.57297,-1.31835 0.77143,-2.41494 0.7789,-3.28311 0.0267,-2.36282 1.11926,-4.57374 2.947,-5.97524 1.55886,-1.19971 3.83046,-2.90835 7.16264,-5.41642 2.07955,-1.56338 3.12839,-2.67438 2.94914,-9.42245 -0.16218,-6.19145 -1.22489,-11.02242 -1.57913,-12.0669 -0.50042,-1.46359 -0.36064,-1.73414 0.20166,-2.82407 1.67089,-3.20772 3.93823,-6.03733 5.5387,-9.29494 2.54262,-5.17803 5.66674,-8.22057 7.37711,-9.86822 0.0747,-0.0732 0.14404,-0.14747 0.21019,-0.2273 3.09638,-3.77209 4.87611,-8.87028 6.00178,-13.65357 0.24007,-1.01343 0.61884,-1.97697 0.9048,-2.97376 0.21446,-0.75398 0.52922,-1.40151 0.91226,-5.3011 0.0662,-0.66749 -0.28915,-1.26513 -0.2582,-1.92707 0.1419,-2.57016 -0.70635,-0.3027 -1.43189,0.0588 -1.84802,0.91142 -0.84825,0.59098 -1.65276,1.13428 -0.39158,0.25502 -3.37593,1.35161 -3.73443,1.69755 -0.42253,0.40471 -0.81944,0.85709 -1.42762,0.94025 -3.67362,0.479 -4.32448,0.56326 -4.97214,-0.061 -0.61458,-0.58877 -1.00403,-1.32722 -1.16941,-2.17876 -0.17072,-0.89258 -0.60605,-1.72195 -1.26544,-2.36282 -3.51784,-3.41062 -10.41161,-5.62709 -12.04302,-14.87878 -0.24754,-1.38931 -10.04243,-16.09068 -12.05369,-19.06444 -0.22513,-0.33264 -0.29769,-0.75065 -0.19846,-1.14316 0,-0.004 0,-0.01 0.002,-0.0144 0.38091,1.01122 1.90242,2.81853 2.82963,3.81422 0.26675,0.28496 0.63806,0.4158 0.94215,0.17741 0.36277,-0.28718 0.1227,-0.71073 0.19632,-2.05569 0.0224,-0.38585 0.55803,-0.41357 0.61885,-0.0344 0.13551,0.84046 0.52709,1.60663 1.11713,2.19872 1.30065,1.30393 2.88618,3.72219 3.92862,5.42528 0.64019,1.04226 1.50658,1.8927 2.54476,2.50142 1.4863,0.87261 1.9323,2.29962 2.99288,5.68474 1.25904,4.00936 5.7745,4.96624 7.44433,8.58864 1.41268,3.0536 1.79039,6.53518 3.58612,9.43354 0.0128,0.0222 0.0245,0.041 0.0374,0.061 0.2294,0.32265 0.62098,0.47234 0.99656,0.38142 2.73254,-0.66749 5.90147,-4.22004 6.6857,-4.85537 1.64849,-1.33498 2.84458,-2.33732 3.72377,-3.10681 1.19822,-1.04559 2.0294,-2.45707 2.3879,-4.04042 0.29983,-1.33386 2.2524,-2.50141 2.84031,-2.50474 1.52578,-0.0122 0.83971,-2.07232 1.47777,-2.99483 0.67967,-0.97462 0.72981,-2.06344 1.51084,-2.92719 0.24968,-0.27719 0.54416,-0.50228 0.87279,-0.67081 0.0331,-0.0166 0.0566,-0.0488 0.063,-0.0865 0.19205,-1.04004 -0.43533,-1.98916 -0.42466,-3.01035 0.002,-0.26278 0.23793,-0.46569 0.48974,-0.41357 0.009,0.002 0.0192,0 0.0245,-0.006 0.009,-0.006 0.0128,-0.0144 0.0149,-0.0233 0.54203,-3.21104 1.5834,-5.92202 -1.15021,-7.25478 -1.07551,-0.53222 -2.37936,0.30492 -3.393,-0.60096 -0.006,-0.006 -0.0128,-0.01 -0.0192,-0.0155 -0.5527,-0.49674 -1.29852,-0.69743 -2.01553,-0.54442 -0.71701,0.15523 -1.32306,0.64421 -1.64422,1.32722 -0.002,0.007 -0.004,0.0122 -0.006,0.0177 -0.28168,0.59209 -0.82478,1.00234 -1.45216,1.09326 -1.01897,0.14969 -0.9048,0.33929 -1.68797,0.95023 0,0.002 -0.002,0.002 -0.002,0.002 -1.65702,-0.90255 -2.68453,-0.9835 -8.53372,-10.0467 -1.74665,-2.701 0.62952,-4.0515 1.4479,-3.06357 0.002,10e-4 0.004,-0.003 0.004,-0.003 0,-10e-4 0.004,-10e-4 0.006,-0.002 0.72769,0.8194 3.69069,4.08144 6.09567,5.47518 0.81731,0.47345 3.2863,1.12209 3.7387,0.26278 1.66876,-3.17666 2.87125,-0.87372 3.10492,-0.36368 1.22916,2.71652 4.65524,0.34816 5.41813,0.38919 1.66663,0.0876 1.51725,-0.26833 6.29519,-3.07688 1.89176,-1.11544 4.16763,-1.2873 6.1981,-0.47013 2.02726,0.81607 3.59466,2.54023 4.27219,4.68905 2.16277,6.85451 4.28073,19.82396 4.28073,32.65814 -0.003,68.46416 -53.40669,123.95992 -119.28426,123.95992 z m -19.195,-203.06726 c -0.0288,-0.16742 -0.0416,-0.58654 0.0459,-0.79832 0.24754,-0.581 0.83118,-0.8327 1.18329,-1.30615 0.42679,-0.57546 0.34997,-0.64864 0.20166,-0.78169 -0.19633,-0.18517 -0.14618,-0.34372 -0.004,-0.52224 0.16645,-0.21732 0.38518,-0.38918 0.54843,-0.60983 0.13977,-0.18073 0.16431,-0.43132 0.3521,-0.581 0.24434,-0.20069 0.41292,-0.1885 0.77783,-0.16743 0.28808,0.0189 0.97949,-1.28508 1.84054,-1.5146 0.82691,-0.22176 2.15104,1.43144 1.77546,2.0069 -0.0768,0.12751 -0.29129,0.15856 -0.52069,0.19182 -0.2358,0.0355 -0.37131,0.0521 -0.57083,0.67081 -0.0768,0.23174 0.17925,0.55107 -0.11204,0.71628 -0.25821,0.14525 -0.0523,0.43464 -0.13337,0.63755 -0.17072,0.41025 -0.53562,0.92251 -0.74795,1.20303 -0.21873,0.28607 -0.85039,0.082 -1.5738,0.28829 -0.004,10e-4 -0.0107,0.003 -0.0149,0.006 -0.52495,0.14636 -0.98802,0.4546 -1.48204,0.67858 -0.54629,0.24615 -1.45322,0.48897 -1.56526,-0.11754 z"
       id="network-5-icon"
       inkscape:connector-curvature="0"
       style="fill:#ffffff;fill-opacity:0.85507244" />
  </g>
  <g
     inkscape:groupmode="layer"
     id="layer3"
     inkscape:label="Background"
     transform="translate(0,85)">
    <g
       id="g5017"
       transform="translate(0,-20)">
      <rect
         ry="16.421846"
         rx="29.252113"
         y="197.96674"
         x="25"
         height="92.822723"
         width="600"
         id="rect4019"
         style="fill:#000000;fill-opacity:0.5" />
      <path
         inkscape:connector-curvature="0"
         id="rect4033"
         d="m 430.67935,197.04853 0,21.07783 -283.43,0 0,49.36652 283.43,0 0,21.07782 35.63498,-22.88054 34.88078,-22.41832 0,-0.92445 -34.88078,-22.41832 -35.63498,-22.88054 z"
         style="fill:url(#linearGradient5021);fill-opacity:1;stroke:#000000;stroke-width:0;stroke-linecap:butt;stroke-miterlimit:4;stroke-opacity:1;stroke-dasharray:none" />
    </g>
  </g>
  <g
     inkscape:groupmode="layer"
     id="layer2"
     inkscape:label="Placeholders"
     style="display:inline"
     transform="translate(0,85)">
    <g
       id="g4860"
       transform="translate(0,-26.53904)">
      <rect
         y="214"
         x="65.333344"
         height="72"
         width="72"
         id="rect2985"
         style="fill:#008000;stroke:#000000;stroke-width:10;stroke-miterlimit:4;stroke-opacity:1;stroke-dasharray:none" />
      <flowRoot
         transform="translate(-34.518226,162.17886)"
         style="font-size:40px;font-style:normal;font-weight:normal;line-height:125%;letter-spacing:0px;word-spacing:0px;fill:#000000;fill-opacity:1;stroke:none;font-family:Sans"
         id="flowRoot3973"
         xml:space="preserve"><flowRegion
           id="flowRegion3975"><rect
             y="62.51889"
             x="103.6272"
             height="69.370277"
             width="71.083122"
             id="rect3977" /></flowRegion><flowPara
           style="fill:#ffffff"
           id="flowPara3979">NM</flowPara></flowRoot>    </g>
    <g
       id="g4870"
       transform="translate(126,-26.53904)">
      <rect
         style="fill:#00ffff;stroke:#000000;stroke-width:10;stroke-miterlimit:4;stroke-opacity:1;stroke-dasharray:none"
         id="rect2987"
         width="72"
         height="72"
         x="382.66669"
         y="214" />
      <text
         sodipodi:linespacing="125%"
         id="text3988"
         y="259.37793"
         x="384.35419"
         style="font-size:40px;font-style:normal;font-weight:normal;line-height:125%;letter-spacing:0px;word-spacing:0px;fill:#000000;fill-opacity:1;stroke:none;font-family:Sans"
         xml:space="preserve"><tspan
           style="font-size:36px"
           y="259.37793"
           x="384.35419"
           id="tspan3990"
           sodipodi:role="line">App</tspan></text>
    </g>
    <g
       id="g4881"
       transform="translate(40,-32)">
      <rect
         style="fill:#ff0000;stroke:#000000;stroke-width:10;stroke-miterlimit:4;stroke-opacity:1;stroke-dasharray:none"
         id="rect3874"
         width="72"
         height="72"
         x="26.86145"
         y="59.163731" />
      <text
         sodipodi:linespacing="125%"
         id="text3997"
         y="109.74379"
         x="31.689575"
         style="font-size:40px;font-style:normal;font-weight:normal;line-height:125%;letter-spacing:0px;word-spacing:0px;fill:#000000;fill-opacity:1;stroke:none;font-family:Sans"
         xml:space="preserve"><tspan
           y="109.74379"
           x="31.689575"
           id="tspan3999"
           sodipodi:role="line">RM</tspan></text>
    </g>
    <g
       id="g4886"
       transform="translate(80,-32)">
      <rect
         y="59.163731"
         x="136.65489"
         height="72"
         width="72"
         id="rect3876"
         style="fill:#ffff00;stroke:#000000;stroke-width:10;stroke-miterlimit:4;stroke-opacity:1;stroke-dasharray:none" />
      <text
         sodipodi:linespacing="125%"
         id="text4006"
         y="109.72426"
         x="140.77989"
         style="font-size:40px;font-style:normal;font-weight:normal;line-height:125%;letter-spacing:0px;word-spacing:0px;fill:#000000;fill-opacity:1;stroke:none;font-family:Sans"
         xml:space="preserve"><tspan
           y="109.72426"
           x="140.77989"
           id="tspan4008"
           sodipodi:role="line">LIC</tspan></text>
    </g>
    <rect
       style="fill:#ff00ff"
       id="rect4015"
       width="44.534004"
       height="544.51324"
       x="-44.534004"
       y="-146.27649" />
    <rect
       y="-124.32915"
       x="650"
       height="520.85309"
       width="44.534004"
       id="rect4017"
       style="fill:#ff00ff" />
    <rect
       y="-131.24686"
       x="-56.52393"
       height="46.246853"
       width="754.81409"
       id="rect4989"
       style="fill:#ff00ff" />
    <rect
       style="fill:#ff00ff"
       id="rect4991"
       width="797.80933"
       height="46.246853"
       x="-71.083122"
       y="340" />
  </g>
</svg>
